<svg xmlns="http://www.w3.org/2000/svg" viewBox="0 0 320 220" role="img" aria-labelledby="title desc">
  <title id="title">Donkey illustration</title>
  <desc id="desc">A simple donkey head profile with long ears and a long muzzle.</desc>
  <rect width="320" height="220" rx="28" fill="#efe7dd"/>
  <circle cx="66" cy="58" r="18" fill="#ffffff" fill-opacity="0.34"/>

  <g transform="translate(160 102)">
    <path d="M10 -58
             C4 -84, 14 -104, 30 -110
             C40 -100, 42 -78, 36 -54
             Z"
          fill="#7c6b60"/>
    <path d="M-12 -54
             C-24 -78, -22 -100, -12 -112
             C2 -102, 6 -80, 2 -54
             Z"
          fill="#7c6b60"/>

    <path d="M22 -26
             C40 -20, 54 -2, 56 20
             C52 42, 44 64, 28 84
             C14 78, 4 68, -4 56
             C-22 54, -38 48, -52 34
             C-58 22, -56 8, -44 2
             C-30 -4, -16 -12, -8 -24
             C2 -34, 12 -34, 22 -26 Z"
          fill="#8f7d72"/>

    <path d="M-48 34
             C-62 40, -70 52, -70 66
             C-64 74, -54 76, -44 72
             C-36 78, -24 80, -14 74
             C-10 62, -14 48, -26 40
             C-34 34, -40 32, -48 34 Z"
          fill="#ead9cc"/>

    <path d="M12 -2
             C20 -10, 32 -10, 40 -2
             C30 2, 22 8, 16 18
             C10 14, 8 6, 12 -2 Z"
          fill="#ead9cc"/>

    <circle cx="30" cy="-10" r="3.4" fill="#17352f"/>
    <path d="M-70 62 C-80 66, -80 80, -66 84" stroke="#5c4c43" stroke-width="3" stroke-linecap="round"/>
    <path d="M34 -28 C48 -18, 58 -4, 62 14" stroke="#5c4c43" stroke-width="3.5" stroke-linecap="round"/>
  </g>

  <text x="160" y="182" text-anchor="middle" font-size="24" font-family="Georgia, serif" fill="#17352f">&#x0127;mar / donkey</text>
</svg>
