<svg xmlns="http://www.w3.org/2000/svg" viewBox="0 0 320 220" role="img" aria-labelledby="title desc">
  <title id="title">Guinea pig illustration</title>
  <desc id="desc">A simple guinea pig with an oval body, small ears, and short legs.</desc>
  <rect width="320" height="220" rx="28" fill="#f4efe8"/>
  <circle cx="70" cy="60" r="18" fill="#ffffff" fill-opacity="0.35"/>
  <ellipse cx="158" cy="108" rx="52" ry="36" fill="#b88456"/>
  <ellipse cx="144" cy="112" rx="28" ry="22" fill="#fff7ef" fill-opacity="0.82"/>
  <ellipse cx="199" cy="102" rx="23" ry="19" fill="#b88456"/>
  <ellipse cx="192" cy="82" rx="7" ry="9" fill="#d8a47b"/>
  <ellipse cx="208" cy="84" rx="7" ry="9" fill="#d8a47b"/>
  <circle cx="210" cy="100" r="2.8" fill="#17352f"/>
  <ellipse cx="221" cy="108" rx="5" ry="4" fill="#8c5a3a"/>
  <path d="M224 108 L236 104" stroke="#17352f" stroke-width="1.8" stroke-linecap="round"/>
  <path d="M224 110 L236 112" stroke="#17352f" stroke-width="1.8" stroke-linecap="round"/>
  <path d="M224 112 L236 120" stroke="#17352f" stroke-width="1.8" stroke-linecap="round"/>
  <path d="M122 140 C120 150, 132 151, 134 141" stroke="#8c5a3a" stroke-width="5" stroke-linecap="round"/>
  <path d="M150 142 C148 152, 160 153, 162 143" stroke="#8c5a3a" stroke-width="5" stroke-linecap="round"/>
  <path d="M182 140 C180 150, 192 151, 194 141" stroke="#8c5a3a" stroke-width="5" stroke-linecap="round"/>
  <text x="160" y="182" text-anchor="middle" font-size="24" font-family="Georgia, serif" fill="#17352f">fenek tal-Indi</text>
</svg>
