<svg xmlns="http://www.w3.org/2000/svg" viewBox="0 0 320 220" role="img" aria-labelledby="title desc">
  <title id="title">Water turtle illustration</title>
  <desc id="desc">A simple water turtle card with a shell, flippers, and a blue water line.</desc>
  <rect width="320" height="220" rx="28" fill="#e2f4fb"/>
  <circle cx="66" cy="58" r="18" fill="#ffffff" fill-opacity="0.38"/>
  <path d="M0 146 C42 132, 82 154, 124 142 C170 129, 220 154, 320 138 L320 220 L0 220 Z" fill="#b8e3f2"/>
  <ellipse cx="160" cy="108" rx="40" ry="28" fill="#5aa27e"/>
  <ellipse cx="160" cy="108" rx="26" ry="18" fill="#8fcf9f"/>
  <circle cx="205" cy="104" r="12" fill="#5aa27e"/>
  <circle cx="208" cy="101" r="2.5" fill="#17352f"/>
  <path d="M122 114 C96 104, 96 134, 124 128 C130 124, 130 118, 122 114 Z" fill="#7fc7d6"/>
  <path d="M198 114 C224 104, 224 134, 196 128 C190 124, 190 118, 198 114 Z" fill="#7fc7d6"/>
  <text x="160" y="184" text-anchor="middle" font-size="24" font-family="Georgia, serif" fill="#17352f">fekruna tal-ilma</text>
</svg>
