<svg xmlns="http://www.w3.org/2000/svg" viewBox="0 0 64 64" role="img" aria-labelledby="title">
  <title>Maltese Study Site favicon</title>
  <defs>
    <linearGradient id="bg" x1="0" y1="0" x2="1" y2="1">
      <stop offset="0%" stop-color="#f5efe2" />
      <stop offset="100%" stop-color="#ebe4d3" />
    </linearGradient>
  </defs>
  <rect x="4" y="4" width="56" height="56" rx="16" fill="url(#bg)" />
  <path d="M15 20h18c8 0 13 4 13 10 0 4-2.2 7.2-5.8 8.8L47 49H37.2l-5.4-8.4h-7V49H15V20zm9.8 7.2v6.8h7.4c2.9 0 4.5-1.2 4.5-3.4 0-2.3-1.6-3.4-4.5-3.4h-7.4z" fill="#0d3741"/>
  <path d="M4 18h32v8H4z" fill="#2f8f83"/>
  <path d="M36 18h24v8H36z" fill="#c76a2a"/>
</svg>
