<svg xmlns="http://www.w3.org/2000/svg" viewBox="0 0 64 64" role="img" aria-labelledby="title">
  <title>Maltese favicon option: speech bubble</title>
  <rect x="4" y="4" width="56" height="56" rx="16" fill="#f5efe2"/>
  <path d="M4 18h32v8H4z" fill="#2f8f83"/>
  <path d="M36 18h24v8H36z" fill="#c76a2a"/>
  <path d="M14 22h36c3.3 0 6 2.7 6 6v16c0 3.3-2.7 6-6 6H31l-9 7v-7H14c-3.3 0-6-2.7-6-6V28c0-3.3 2.7-6 6-6z" fill="#2f8f83"/>
  <path d="M19 45V27h7l6 8 6-8h7v18h-7v-8l-6 8-6-8v8z" fill="#fdfaf2"/>
</svg>
